<svg data-v-423bf9ae="" xmlns="http://www.w3.org/2000/svg" viewBox="0 0 465.8689276625852 60" class="font"><!----><!----><!----><g data-v-423bf9ae="" id="c0aaade4-9b2a-40b2-9844-8cda9afe2739" fill="white" transform="matrix(5.698005199432373,0,0,5.698005199432373,-4.216513156890869,-22.73503875732422)"><path d="M4.20 14.52C6.27 14.52 7.50 13.50 7.50 11.72C7.50 10.50 6.93 9.41 4.96 9.07L3.88 8.89C2.56 8.68 1.88 8.13 1.88 7.00C1.88 5.77 2.73 5.14 4.19 5.14C5.49 5.14 6.24 5.60 6.80 6.37L7.39 5.85C6.78 4.97 5.78 4.41 4.21 4.41C2.28 4.41 1.04 5.28 1.04 7.03C1.04 8.22 1.61 9.31 3.56 9.63L4.65 9.81C5.94 10.02 6.66 10.53 6.66 11.75C6.66 13.06 5.78 13.79 4.23 13.79C2.88 13.79 2.09 13.27 1.36 12.35L0.74 12.85C1.46 13.82 2.46 14.52 4.20 14.52ZM12.88 14.52C14.27 14.52 15.15 13.80 15.55 12.87L14.97 12.49C14.59 13.31 13.90 13.82 12.88 13.82C11.40 13.82 10.57 12.78 10.57 11.24L10.57 10.23C10.57 8.69 11.40 7.66 12.87 7.66C13.83 7.66 14.50 8.11 14.80 8.90L15.44 8.58C15.08 7.63 14.21 6.96 12.87 6.96C10.89 6.96 9.72 8.36 9.72 10.74C9.72 13.10 10.88 14.52 12.88 14.52ZM21 14.52C22.96 14.52 24.15 13.12 24.15 10.74C24.15 8.36 22.96 6.96 21 6.96C19.04 6.96 17.85 8.36 17.85 10.74C17.85 13.12 19.04 14.52 21 14.52ZM21 13.82C19.59 13.82 18.70 12.89 18.70 11.19L18.70 10.29C18.70 8.58 19.59 7.66 21 7.66C22.41 7.66 23.30 8.58 23.30 10.29L23.30 11.19C23.30 12.89 22.41 13.82 21 13.82ZM26.29 14.35L32.30 14.35L32.30 13.66L29.36 13.66L29.36 10.05C29.36 8.75 30.23 7.91 31.53 7.91L33.01 7.91L33.01 7.13L31.77 7.13C30.34 7.13 29.71 7.90 29.41 8.78L29.36 8.78L29.36 7.13L26.29 7.13L26.29 7.81L28.56 7.81L28.56 13.66L26.29 13.66ZM37.91 14.52C39.33 14.52 40.32 13.80 40.75 12.75L40.15 12.38C39.75 13.31 38.96 13.82 37.91 13.82C36.41 13.82 35.52 12.78 35.52 11.24L35.52 10.89L40.94 10.89L40.94 10.54C40.94 8.41 39.77 6.96 37.84 6.96C35.92 6.96 34.68 8.36 34.68 10.75C34.68 13.12 35.91 14.52 37.91 14.52ZM37.84 7.63C39.23 7.63 40.08 8.62 40.08 10.18L40.08 10.29L35.52 10.29L35.52 10.21C35.52 8.67 36.44 7.63 37.84 7.63ZM43.50 14.35L44.30 14.35L44.30 13.20L44.34 13.20C44.74 13.99 45.49 14.52 46.58 14.52C48.37 14.52 49.45 13.16 49.45 10.74C49.45 8.32 48.37 6.96 46.58 6.96C45.49 6.96 44.74 7.49 44.34 8.27L44.30 8.27L44.30 3.99L43.50 3.99ZM46.31 13.80C45.23 13.80 44.30 13.19 44.30 12.17L44.30 9.31C44.30 8.29 45.23 7.67 46.31 7.67C47.77 7.67 48.59 8.67 48.59 10.23L48.59 11.24C48.59 12.81 47.77 13.80 46.31 13.80ZM54.60 14.52C56.56 14.52 57.75 13.12 57.75 10.74C57.75 8.36 56.56 6.96 54.60 6.96C52.64 6.96 51.45 8.36 51.45 10.74C51.45 13.12 52.64 14.52 54.60 14.52ZM54.60 13.82C53.19 13.82 52.30 12.89 52.30 11.19L52.30 10.29C52.30 8.58 53.19 7.66 54.60 7.66C56.01 7.66 56.90 8.58 56.90 10.29L56.90 11.19C56.90 12.89 56.01 13.82 54.60 13.82ZM66.40 14.35L66.40 13.65L65.32 13.65L65.32 9.37C65.32 7.85 64.32 6.96 62.69 6.96C61.29 6.96 60.41 7.62 60.03 8.44L60.58 8.83C60.97 8.05 61.66 7.64 62.65 7.64C63.83 7.64 64.53 8.25 64.53 9.45L64.53 10.33L62.76 10.33C60.61 10.33 59.79 11.13 59.79 12.40C59.79 13.73 60.72 14.52 62.23 14.52C63.48 14.52 64.18 13.97 64.50 13.22L64.57 13.22L64.57 13.47C64.61 14 64.86 14.35 65.51 14.35ZM62.36 13.85C61.32 13.85 60.63 13.40 60.63 12.57L60.63 12.21C60.63 11.42 61.26 10.93 62.76 10.93L64.53 10.93L64.53 12.26C64.53 13.23 63.57 13.85 62.36 13.85ZM68.29 14.35L74.30 14.35L74.30 13.66L71.36 13.66L71.36 10.05C71.36 8.75 72.23 7.91 73.53 7.91L75.01 7.91L75.01 7.13L73.77 7.13C72.34 7.13 71.71 7.90 71.41 8.78L71.36 8.78L71.36 7.13L68.29 7.13L68.29 7.81L70.56 7.81L70.56 13.66L68.29 13.66ZM81.70 14.35L82.50 14.35L82.50 3.99L81.70 3.99L81.70 8.27L81.66 8.27C81.26 7.49 80.51 6.96 79.42 6.96C77.63 6.96 76.55 8.32 76.55 10.74C76.55 13.16 77.63 14.52 79.42 14.52C80.51 14.52 81.26 13.99 81.66 13.20L81.70 13.20ZM79.69 13.80C78.23 13.80 77.41 12.81 77.41 11.24L77.41 10.23C77.41 8.67 78.23 7.67 79.69 7.67C80.77 7.67 81.70 8.29 81.70 9.31L81.70 12.17C81.70 13.19 80.77 13.80 79.69 13.80Z"></path></g><!----><!----></svg>